HIERARCHY
ROOT Hips
{
	OFFSET 0.00000 0.00000 0.00000
	CHANNELS 6 Xposition Yposition Zposition Zrotation Yrotation Xrotation 
	JOINT LHipJoint
	{
		OFFSET 0 0 0
		CHANNELS 3 Zrotation Yrotation Xrotation
		JOINT LeftHip
		{
			OFFSET 1.53794 -1.55850 0.93568
			CHANNELS 3 Zrotation Yrotation Xrotation
			JOINT LeftKnee
			{
				OFFSET 2.28545 -6.27922 0.00000
				CHANNELS 3 Zrotation Yrotation Xrotation
				JOINT LeftAnkle
				{
					OFFSET 2.37329 -6.52057 0.00000
					CHANNELS 3 Zrotation Yrotation Xrotation
					JOINT LeftToe
					{
						OFFSET 0.14846 -0.40788 2.09160
						CHANNELS 3 Zrotation Yrotation Xrotation
						End Site
						{
							OFFSET 0.00000 -0.00000 1.07536
						}
					}
				}
			}
		}
	}
	JOINT RHipJoint
	{
		OFFSET 0 0 0
		CHANNELS 3 Zrotation Yrotation Xrotation
		JOINT RightHip
		{
			OFFSET -1.78290 -1.55850 0.93568
			CHANNELS 3 Zrotation Yrotation Xrotation
			JOINT RightKnee
			{
				OFFSET -2.24144 -6.15831 0.00000
				CHANNELS 3 Zrotation Yrotation Xrotation
				JOINT RightAnkle
				{
					OFFSET -2.35091 -6.45907 0.00000
					CHANNELS 3 Zrotation Yrotation Xrotation
					JOINT RightToe
					{
						OFFSET -0.14428 -0.39641 2.07944
						CHANNELS 3 Zrotation Yrotation Xrotation
						End Site
						{
							OFFSET -0.00000 -0.00000 1.06864
						}
					}
				}
			}
		}
	}
	JOINT lowerback
	{
		OFFSET 0 0 0
		CHANNELS 3 Zrotation Yrotation Xrotation
		JOINT Chest
		{
			OFFSET -0.08841 2.11430 -0.15818
			CHANNELS 3 Zrotation Yrotation Xrotation
			JOINT Chest2
			{
				OFFSET -0.00033 2.12605 -0.08097
				CHANNELS 3 Zrotation Yrotation Xrotation
				JOINT lowerneck
				{
					OFFSET 0 0 0
					CHANNELS 3 Zrotation Yrotation Xrotation
					JOINT Neck
					{
						OFFSET 0.04431 1.59447 0.43193
						CHANNELS 3 Zrotation Yrotation Xrotation
						JOINT Head
						{
							OFFSET 0.00455 1.62017 -0.58852
							CHANNELS 3 Zrotation Yrotation Xrotation
							End Site
							{
								OFFSET -0.00920 1.72955 -0.25850
							}
						}
					}
				}
				JOINT LeftCollar
				{
					OFFSET 0 0 0
					CHANNELS 3 Zrotation Yrotation Xrotation
					JOINT LeftShoulder
					{
						OFFSET 2.86490 1.49927 -0.33774
CHANNELS 3 Zrotation Xrotation Yrotation
						JOINT LeftElbow
						{
OFFSET 0 -4.874080 0.000000
CHANNELS 3 Zrotation Xrotation Yrotation
							JOINT LeftWrist
							{
OFFSET 0 -2.767290 0.000000
CHANNELS 3 Zrotation Xrotation Yrotation
								JOINT lhand
								{
									OFFSET 0 0 0
CHANNELS 3 Zrotation Xrotation Yrotation
									JOINT LFingers
									{
OFFSET 0 -0.989220 0.000000
CHANNELS 3 Zrotation Xrotation Yrotation
										End Site
										{
OFFSET 0 -0.797530 0.000000
										}
									}
								}
								JOINT LThumb
								{
OFFSET 0 0.000000 0.000000
CHANNELS 3 Zrotation Xrotation Yrotation
									End Site
									{
OFFSET 0 -0.809720 0.809720
									}
								}
							}
						}
					}
				}
				JOINT RightCollar
				{
					OFFSET 0 0 0
					CHANNELS 3 Zrotation Yrotation Xrotation
					JOINT RightShoulder
					{
						OFFSET -2.94414 1.45463 -0.25291
CHANNELS 3 Zrotation Xrotation Yrotation
						JOINT RightElbow
						{
OFFSET 0 -4.714040 0.000000
CHANNELS 3 Zrotation Xrotation Yrotation
							JOINT RightWrist
							{
OFFSET 0 -2.834680 0.000000
CHANNELS 3 Zrotation Xrotation Yrotation
								JOINT rhand
								{
									OFFSET 0 0 0
CHANNELS 3 Zrotation Xrotation Yrotation
									JOINT RFingers
									{
OFFSET 0 -0.868200 0.000000
CHANNELS 3 Zrotation Xrotation Yrotation
										End Site
										{
OFFSET 0 -0.699960 0.000000
										}
									}
								}
								JOINT RThumb
								{
OFFSET 0 0.000000 0.000000
CHANNELS 3 Zrotation Xrotation Yrotation
									End Site
									{
OFFSET 0 -0.710650 0.710650
									}
								}
							}
						}
					}
				}
			}
		}
	}
}
MOTION
Frames: 11
Frame Time: 0.008333333333333333
1.741326 15.681960 3.618908 177.674511 0.837441 -171.180274 0.000000 0.000000 0.000000 -24.006771 -13.036534 -15.326389 3.107426 10.866928 31.832453 -1.093270 19.713368 -15.787034 0.001565 0.256913 0.705803 0.000000 0.000000 0.000000 20.260833 12.556914 -12.218019 -3.091965 -10.842523 31.750431 -0.570972 -14.602866 -25.996584 -0.136651 2.382574 -6.564184 -5.117042 -0.209613 -6.450029 -0.488678 0.194932 1.387404 2.387584 -0.038836 5.057295 1.122975 -1.657707 -37.262136 1.495606 -2.116034 39.922657 0.289706 0.365372 24.129150 0.000000 0.000000 0.000000 -0.587240 -3.777485 8.379628 8.040496 -13.617948 0.962169 1.735498 64.421352 -7.075660 0.000000 0.000000 0.000000 -7.125000 0.000000 0.000000 -20.858503 36.309255 -4.714281 0.000000 0.000000 0.000000 1.053957 5.151051 -9.421426 -11.351979 -18.825441 -1.888216 -4.068597 42.912686 7.202051 0.000000 0.000000 0.000000 7.125000 0.000000 0.000000 19.016878 36.578587 4.124040
1.743992 15.681677 3.610330 177.667112 0.827860 -171.132681 0.000000 0.000000 0.000000 -23.999897 -13.052732 -15.349958 3.110036 10.871115 31.846520 -1.093419 19.717927 -15.797445 0.001495 0.251395 0.690616 0.000000 0.000000 0.000000 20.261784 12.555541 -12.225213 -3.089011 -10.837760 31.734533 -0.572651 -14.609283 -26.016784 -0.135991 2.377192 -6.549301 -5.116701 -0.198215 -6.457034 -0.483207 0.209870 1.381275 2.394816 -0.031472 5.053585 1.091246 -1.659063 -37.254412 1.504256 -2.106578 39.889193 0.301619 0.361321 24.096713 0.000000 0.000000 0.000000 -0.589524 -3.554568 11.062086 7.756184 -13.156729 0.895870 1.616378 66.695485 -7.051293 0.000000 0.000000 0.000000 -7.125000 0.000000 0.000000 -20.947143 36.278724 -4.753281 0.000000 0.000000 0.000000 1.026158 5.361826 -10.472312 -11.140532 -18.503187 -1.820350 -3.954780 43.729855 7.202223 0.000000 0.000000 0.000000 7.125000 0.000000 0.000000 19.108821 36.571376 4.149416
1.746853 15.681328 3.601816 177.653853 0.825766 -171.083135 0.000000 0.000000 0.000000 -23.998362 -13.065153 -15.376196 3.112059 10.874325 31.857266 -1.093698 19.722812 -15.807075 0.001426 0.243859 0.669961 0.000000 0.000000 0.000000 20.255573 12.568102 -12.237356 -3.087685 -10.835666 31.727554 -0.573419 -14.622472 -26.037439 -0.135851 2.375587 -6.544835 -5.127169 -0.186491 -6.460523 -0.477346 0.225851 1.370459 2.408494 -0.023586 5.042908 1.069544 -1.654039 -37.241153 1.505093 -2.089830 39.853254 0.309365 0.360134 24.059589 0.000000 0.000000 0.000000 -0.577940 -3.313747 13.786344 7.506640 -12.749615 0.840183 1.481697 69.048009 -7.003422 0.000000 0.000000 0.000000 -7.125000 0.000000 0.000000 -21.041839 36.225340 -4.806734 0.000000 0.000000 0.000000 0.991197 5.565243 -11.568254 -10.929020 -18.179045 -1.753917 -3.838033 44.605492 7.214505 0.000000 0.000000 0.000000 7.125000 0.000000 0.000000 19.206168 36.575493 4.170561
1.749714 15.680846 3.593391 177.636613 0.826681 -171.034032 0.000000 0.000000 0.000000 -24.001251 -13.074522 -15.401240 3.113508 10.876562 31.864783 -1.094110 19.728007 -15.815555 0.001356 0.235614 0.647314 0.000000 0.000000 0.000000 20.244717 12.583052 -12.252064 -3.087510 -10.835387 31.726681 -0.574673 -14.634202 -26.060484 -0.135800 2.375133 -6.543642 -5.142635 -0.174369 -6.460915 -0.473165 0.242627 1.357298 2.423321 -0.015214 5.027984 1.060052 -1.643485 -37.237716 1.497569 -2.068835 39.821077 0.311492 0.361381 24.028790 0.000000 0.000000 0.000000 -0.553305 -3.062087 16.512548 7.276075 -12.372320 0.790070 1.347503 71.430262 -6.949888 0.000000 0.000000 0.000000 -7.125000 0.000000 0.000000 -21.134543 36.166736 -4.862843 0.000000 0.000000 0.000000 0.955970 5.769634 -12.686714 -10.722197 -17.860832 -1.689961 -3.726020 45.511831 7.224707 0.000000 0.000000 0.000000 7.125000 0.000000 0.000000 19.299136 36.577929 4.191528
1.752603 15.680274 3.585017 177.616092 0.829782 -170.986586 0.000000 0.000000 0.000000 -24.008194 -13.080796 -15.423939 3.114428 10.877942 31.869440 -1.094612 19.733492 -15.823329 0.001272 0.226737 0.622915 0.000000 0.000000 0.000000 20.230422 12.600111 -12.267384 -3.088307 -10.836631 31.730918 -0.576237 -14.645915 -26.085918 -0.135898 2.376169 -6.546598 -5.161942 -0.161920 -6.458061 -0.470923 0.260088 1.343246 2.438336 -0.006449 5.010244 1.059544 -1.630074 -37.244689 1.484405 -2.046454 39.795025 0.309408 0.364173 24.006876 0.000000 0.000000 0.000000 -0.517068 -2.802276 19.235500 7.062709 -12.022224 0.744803 1.213771 73.833634 -6.890659 0.000000 0.000000 0.000000 -7.125000 0.000000 0.000000 -21.225257 36.102874 -4.921619 0.000000 0.000000 0.000000 0.921782 5.973815 -13.824163 -10.520171 -17.548915 -1.628375 -3.619684 46.442909 7.234298 0.000000 0.000000 0.000000 7.125000 0.000000 0.000000 19.387345 36.580152 4.211481
1.755604 15.679646 3.576643 177.591668 0.834666 -170.944716 0.000000 0.000000 0.000000 -24.021104 -13.081773 -15.440059 3.114568 10.878151 31.870138 -1.095170 19.739424 -15.830935 0.001132 0.216967 0.596118 0.000000 0.000000 0.000000 20.213116 12.620069 -12.279247 -3.090330 -10.839771 31.741455 -0.577911 -14.660918 -26.115366 -0.136387 2.380496 -6.558531 -5.185040 -0.149080 -6.449408 -0.472528 0.278441 1.331034 2.451456 0.002762 4.991053 1.066732 -1.618002 -37.270508 1.468006 -2.028310 39.784697 0.303476 0.367523 24.005759 0.000000 0.000000 0.000000 -0.464661 -2.534938 21.941056 6.874155 -11.711829 0.706004 1.080765 76.252731 -6.821783 0.000000 0.000000 0.000000 -7.125000 0.000000 0.000000 -21.312626 36.030090 -4.984912 0.000000 0.000000 0.000000 0.892334 6.174930 -14.985421 -10.326454 -17.248430 -1.570525 -3.525059 47.401867 7.246231 0.000000 0.000000 0.000000 7.125000 0.000000 0.000000 19.466688 36.585385 4.227811
1.758658 15.678911 3.568376 177.558669 0.838855 -170.909813 0.000000 0.000000 0.000000 -24.043982 -13.078249 -15.447337 3.114011 10.877289 31.867245 -1.095568 19.744551 -15.839024 0.001046 0.206822 0.568250 0.000000 0.000000 0.000000 20.189540 12.636972 -12.285966 -3.093104 -10.844198 31.756279 -0.580283 -14.675439 -26.150495 -0.136929 2.385251 -6.571643 -5.214408 -0.136936 -6.439469 -0.479920 0.296955 1.324556 2.462163 0.011813 4.977115 1.092676 -1.602071 -37.311708 1.439495 -2.011614 39.781175 0.286934 0.372105 24.015307 0.000000 0.000000 0.000000 -0.394516 -2.263794 24.594790 6.706662 -11.435303 0.672456 0.955261 78.648998 -6.743208 0.000000 0.000000 0.000000 -7.125000 0.000000 0.000000 -21.391259 35.948893 -5.051046 0.000000 0.000000 0.000000 0.868405 6.367952 -16.169938 -10.140774 -16.959252 -1.515997 -3.438846 48.399677 7.247071 0.000000 0.000000 0.000000 7.125000 0.000000 0.000000 19.536385 36.580598 4.246927
1.761822 15.678073 3.560119 177.521444 0.842014 -170.880053 0.000000 0.000000 0.000000 -24.072442 -13.072523 -15.447338 3.113079 10.875846 31.862380 -1.095893 19.749833 -15.848684 0.000977 0.197406 0.542395 0.000000 0.000000 0.000000 20.163508 12.650498 -12.287811 -3.096245 -10.849223 31.773077 -0.583145 -14.690025 -26.189538 -0.137557 2.390697 -6.586724 -5.247237 -0.125260 -6.427271 -0.490768 0.315353 1.320792 2.471184 0.020722 4.964763 0.804064 -1.160066 -37.348861 1.661102 -2.222650 39.748788 0.266414 -0.018633 24.022538 0.000000 0.000000 0.000000 -0.313308 -1.988884 27.218469 6.553550 -11.182053 0.642342 0.843126 81.037713 -6.654105 0.000000 0.000000 0.000000 -7.125000 0.000000 0.000000 -21.456431 35.858819 -5.118879 0.000000 0.000000 0.000000 0.848505 6.557758 -17.367138 -9.961568 -16.679334 -1.464039 -3.358729 49.415537 7.237781 0.000000 0.000000 0.000000 7.125000 0.000000 0.000000 19.598586 36.566635 4.268918
1.765171 15.677096 3.551815 177.480970 0.843549 -170.856327 0.000000 0.000000 0.000000 -24.106008 -13.065126 -15.438197 3.111823 10.873892 31.855750 -1.096173 19.755905 -15.861175 0.000907 0.189660 0.521181 0.000000 0.000000 0.000000 20.136363 12.659151 -12.283065 -3.099665 -10.854666 31.791220 -0.586565 -14.705028 -26.232943 -0.138325 2.397257 -6.605007 -5.283175 -0.114095 -6.411361 -0.505004 0.333427 1.318978 2.478302 0.029444 4.952412 -0.120421 0.125686 -37.368749 2.386635 -2.885030 39.654999 0.244363 -1.195105 24.018770 0.000000 0.000000 0.000000 -0.220776 -1.708775 29.813558 6.416357 -10.954700 0.615894 0.753037 83.425128 -6.549919 0.000000 0.000000 0.000000 -7.125000 0.000000 0.000000 -21.500115 35.756169 -5.188383 0.000000 0.000000 0.000000 0.833292 6.746033 -18.575570 -9.790390 -16.411018 -1.415191 -3.285666 50.443929 7.215031 0.000000 0.000000 0.000000 7.125000 0.000000 0.000000 19.651691 36.540467 4.294947
1.768710 15.676119 3.543573 177.440496 0.849490 -170.833860 0.000000 0.000000 0.000000 -24.139825 -13.056470 -15.427419 3.110567 10.871875 31.848995 -1.097207 19.767074 -15.876372 0.000837 0.182669 0.501918 0.000000 0.000000 0.000000 20.110161 12.668623 -12.276495 -3.102706 -10.859480 31.807413 -0.590173 -14.719214 -26.276914 -0.139155 2.404068 -6.623856 -5.321127 -0.102426 -6.396709 -0.520372 0.352760 1.319807 2.485609 0.038608 4.943522 -0.172896 0.265143 -37.387379 2.428345 -2.931937 39.632898 0.224766 -1.299863 24.009526 0.000000 0.000000 0.000000 -0.120251 -1.422498 32.320345 6.303395 -10.767187 0.594670 0.681010 85.762192 -6.422887 0.000000 0.000000 0.000000 -7.125000 0.000000 0.000000 -21.523407 35.633441 -5.263866 0.000000 0.000000 0.000000 0.818583 6.922727 -19.779092 -9.630227 -16.158941 -1.370371 -3.210590 51.463698 7.202415 0.000000 0.000000 0.000000 7.125000 0.000000 0.000000 19.708887 36.523676 4.317326
1.772302 15.675142 3.535306 177.401658 0.857121 -170.811529 0.000000 0.000000 0.000000 -24.172230 -13.047121 -15.416757 3.109606 10.870342 31.843895 -1.098193 19.779386 -15.895627 0.000767 0.177593 0.487972 0.000000 0.000000 0.000000 20.085731 12.675892 -12.268744 -3.105151 -10.863342 31.820448 -0.593834 -14.732066 -26.319671 -0.140025 2.411594 -6.644633 -5.359495 -0.090899 -6.383666 -0.534981 0.371935 1.322102 2.493885 0.047623 4.937037 -0.134268 0.281278 -37.403613 2.401347 -2.910306 39.618461 0.209854 -1.287448 23.999163 0.000000 0.000000 0.000000 -0.017155 -1.141669 34.838961 6.200365 -10.595950 0.575552 0.636863 88.133701 -6.274751 0.000000 0.000000 0.000000 -7.125000 0.000000 0.000000 -21.519319 35.492888 -5.341766 0.000000 0.000000 0.000000 0.801998 7.089817 -20.987022 -9.474762 -15.913668 -1.327396 -3.134868 52.486783 7.185240 0.000000 0.000000 0.000000 7.125000 0.000000 0.000000 19.765415 36.502571 4.341794
